<svg xmlns="http://www.w3.org/2000/svg" style="fill:#4caacf;fill-opacity:1" enable-background="new 0 0 24 24" viewBox="0 0 24 24"><path d="M6.703,20.782c-0.383,0-0.767-0.098-1.118-0.294l-0.536-0.299c-0.241-0.134-0.328-0.438-0.193-0.68c0.134-0.242,0.439-0.328,0.68-0.193l0.536,0.299C6.476,19.84,6.958,19.837,7.36,19.6C7.761,19.364,8,18.946,8,18.481V7.5C8,7.224,8.224,7,8.5,7S9,7.224,9,7.5v10.981c0,0.823-0.424,1.563-1.134,1.98C7.504,20.676,7.104,20.782,6.703,20.782z"/><path d="M12.002,23.999c-0.273,0-0.548-0.071-0.791-0.214l-2.465-1.438c-0.238-0.139-0.319-0.445-0.18-0.684c0.139-0.239,0.445-0.321,0.684-0.18l2.465,1.438c0.179,0.104,0.393,0.106,0.573,0l8.922-5.206c0.178-0.104,0.289-0.301,0.29-0.511V6.793c0-0.21-0.112-0.406-0.292-0.512l-8.919-5.204c-0.178-0.104-0.396-0.104-0.572,0L2.788,6.282C2.61,6.387,2.499,6.582,2.5,6.792v10.412c0,0.211,0.11,0.405,0.289,0.51l2.757,1.608c0.238,0.139,0.319,0.445,0.18,0.684s-0.446,0.32-0.684,0.18l-2.757-1.608C1.801,18.296,1.5,17.77,1.5,17.204V6.793C1.499,6.229,1.799,5.702,2.284,5.419l8.926-5.204c0.488-0.287,1.096-0.285,1.582-0.002l8.921,5.205C22.199,5.703,22.5,6.229,22.5,6.793v10.413c-0.001,0.562-0.302,1.088-0.784,1.372l-8.924,5.207C12.549,23.928,12.275,23.999,12.002,23.999z"/><path d="M14.5,17c-2.176,0-4.5-0.723-4.5-2.75c0-0.276,0.224-0.5,0.5-0.5s0.5,0.224,0.5,0.5c0,1.701,3.142,1.75,3.5,1.75c1.915,0,3.5-0.132,3.5-1.75c0-0.822-0.831-1.101-2.872-1.585l-0.748-0.18c-0.23-0.058-0.477-0.111-0.729-0.167C12.024,11.961,10,11.516,10,9.75C10,7.723,12.324,7,14.5,7S19,7.723,19,9.75c0,0.276-0.224,0.5-0.5,0.5S18,10.026,18,9.75C18,8.049,14.858,8,14.5,8S11,8.049,11,9.75c0,0.891,1.242,1.235,2.865,1.592c0.262,0.058,0.516,0.113,0.755,0.173l0.738,0.178C17.312,12.155,19,12.556,19,14.25C19,17,16.072,17,14.5,17z"/></svg>