<svg xmlns="http://www.w3.org/2000/svg" style="fill:#4caacf;fill-opacity:1" enable-background="new 0 0 24 24" viewBox="0 0 24 24"><path d="M12,19c-6.729,0-12-3.075-12-7s5.271-7,12-7s12,3.075,12,7S18.729,19,12,19z M12,6C5.935,6,1,8.691,1,12s4.935,6,11,6s11-2.691,11-6S18.065,6,12,6z"/><path d="M5.501 16c-.027 0-.056-.002-.083-.007-.272-.045-.457-.303-.411-.575l.33-1.98c.002-.014.004-.027.007-.04l.663-3.979C6.047 9.177 6.256 9 6.5 9h1.371c.552 0 1.071.244 1.424.669.354.425.498.98.396 1.524l-.194 1.036C9.305 13.256 8.407 14 7.364 14H6.257l-.264 1.582C5.952 15.827 5.74 16 5.501 16zM6.424 13h.94c.562 0 1.046-.401 1.15-.955l.194-1.035c.047-.25-.021-.506-.183-.702C8.364 10.112 8.125 10 7.871 10H6.924L6.424 13zM15.751 16c-.027 0-.056-.002-.083-.007-.272-.045-.457-.303-.411-.575l.33-1.98c.002-.014.004-.027.007-.04l.663-3.979C16.297 9.177 16.506 9 16.75 9h1.371c.552 0 1.071.244 1.424.669.354.425.498.98.396 1.524l-.194 1.036C19.555 13.256 18.657 14 17.614 14h-1.107l-.264 1.582C16.202 15.827 15.99 16 15.751 16zM16.674 13h.94c.562 0 1.046-.401 1.15-.955l.194-1.035c.047-.25-.021-.506-.183-.702C18.614 10.112 18.375 10 18.121 10h-.947L16.674 13zM11.001 14c-.027 0-.056-.002-.083-.007-.272-.045-.457-.303-.411-.575l1-6c.046-.273.309-.459.575-.411.272.045.457.303.411.575l-1 6C11.452 13.827 11.24 14 11.001 14z"/><path d="M14.001,14c-0.023,0-0.048-0.002-0.071-0.005c-0.273-0.039-0.464-0.292-0.425-0.565l0.359-2.518c0.021-0.143-0.044-0.241-0.084-0.288c-0.041-0.046-0.13-0.124-0.272-0.124H11.75c-0.276,0-0.5-0.224-0.5-0.5s0.224-0.5,0.5-0.5h1.758c0.395,0,0.77,0.171,1.027,0.469c0.259,0.299,0.375,0.693,0.319,1.085l-0.359,2.517C14.459,13.82,14.245,14,14.001,14z"/></svg>